<?xml version="1.0" encoding="UTF-8" standalone="no"?>
<!DOCTYPE svg PUBLIC "-//W3C//DTD SVG 1.1//EN" "http://www.w3.org/Graphics/SVG/1.1/DTD/svg11.dtd">
<svg version="1.1" xmlns="http://www.w3.org/2000/svg" xmlns:xlink="http://www.w3.org/1999/xlink" preserveAspectRatio="xMidYMid meet" viewBox="0 0 640 640" width="640" height="640"><defs><path d="M553.93 0.31L557.7 0.7L561.44 1.23L565.12 1.91L568.75 2.73L572.33 3.69L575.85 4.79L579.31 6.02L582.7 7.38L586.03 8.87L589.3 10.48L592.48 12.21L595.59 14.07L598.63 16.03L601.58 18.11L604.45 20.3L607.23 22.6L609.91 24.99L612.51 27.49L615.01 30.09L617.4 32.77L619.7 35.55L621.89 38.42L623.97 41.37L625.93 44.41L627.79 47.52L629.52 50.7L631.13 53.97L632.62 57.3L633.98 60.69L635.21 64.15L636.31 67.67L637.27 71.25L638.09 74.88L638.77 78.56L639.3 82.3L639.69 86.07L639.92 89.89L640 93.75L640 546.25L639.92 550.11L639.69 553.93L639.3 557.7L638.77 561.44L638.09 565.12L637.27 568.75L636.31 572.33L635.21 575.85L633.98 579.31L632.62 582.7L631.13 586.03L629.52 589.3L627.79 592.48L625.93 595.59L623.97 598.63L621.89 601.58L619.7 604.45L617.4 607.23L615.01 609.91L612.51 612.51L609.91 615.01L607.23 617.4L604.45 619.7L601.58 621.89L598.63 623.97L595.59 625.93L592.48 627.79L589.3 629.52L586.03 631.13L582.7 632.62L579.31 633.98L575.85 635.21L572.33 636.31L568.75 637.27L565.12 638.09L561.44 638.77L557.7 639.3L553.93 639.69L550.11 639.92L546.25 640L395 640L395 413.75L490 413.75L508.75 301.25L395 301.25L395 225L508.75 225L508.75 112.5L395 112.5L390.37 112.59L385.79 112.87L381.25 113.34L376.78 113.98L372.35 114.79L368 115.78L363.7 116.93L359.48 118.24L355.33 119.72L351.25 121.35L347.25 123.14L343.34 125.08L339.52 127.16L335.78 129.38L332.14 131.74L328.6 134.23L325.16 136.86L321.83 139.61L318.6 142.49L315.49 145.49L312.49 148.6L309.61 151.83L306.86 155.16L304.23 158.6L301.74 162.14L299.38 165.78L297.16 169.52L295.08 173.34L293.14 177.25L291.35 181.25L289.72 185.33L288.24 189.48L286.93 193.7L285.78 198L284.79 202.35L283.98 206.78L283.34 211.25L282.87 215.79L282.59 220.37L282.5 225L282.5 301.25L207.5 301.25L207.5 413.75L282.5 413.75L282.5 640L93.75 640L89.89 639.92L86.07 639.69L82.3 639.3L78.56 638.77L74.88 638.09L71.25 637.27L67.67 636.31L64.15 635.21L60.69 633.98L57.3 632.62L53.97 631.13L50.7 629.52L47.52 627.79L44.41 625.93L41.37 623.97L38.42 621.89L35.55 619.7L32.77 617.4L30.09 615.01L27.49 612.51L24.99 609.91L22.6 607.23L20.3 604.45L18.11 601.58L16.03 598.63L14.07 595.59L12.21 592.48L10.48 589.3L8.87 586.03L7.38 582.7L6.02 579.31L4.79 575.85L3.69 572.33L2.73 568.75L1.91 565.12L1.23 561.44L0.7 557.7L0.31 553.93L0.08 550.11L0 546.25L0 93.75L0.08 89.89L0.31 86.07L0.7 82.3L1.23 78.56L1.91 74.88L2.73 71.25L3.69 67.67L4.79 64.15L6.02 60.69L7.38 57.3L8.87 53.97L10.48 50.7L12.21 47.52L14.07 44.41L16.03 41.37L18.11 38.42L20.3 35.55L22.6 32.77L24.99 30.09L27.49 27.49L30.09 24.99L32.77 22.6L35.55 20.3L38.42 18.11L41.37 16.03L44.41 14.07L47.52 12.21L50.7 10.48L53.97 8.87L57.3 7.38L60.69 6.02L64.15 4.79L67.67 3.69L71.25 2.73L74.88 1.91L78.56 1.23L82.3 0.7L86.07 0.31L89.89 0.08L93.75 0L546.25 0L550.11 0.08L553.93 0.31Z" id="d2hlC9sDRP"></path></defs><g><g><g><use xlink:href="#d2hlC9sDRP" opacity="1" fill="#ffffff" fill-opacity="1"></use><g><use xlink:href="#d2hlC9sDRP" opacity="1" fill-opacity="0" stroke="#000000" stroke-width="1" stroke-opacity="0"></use></g></g></g></g></svg>