<?xml version="1.0" encoding="UTF-8" standalone="no"?>
<!DOCTYPE svg PUBLIC "-//W3C//DTD SVG 1.1//EN" "http://www.w3.org/Graphics/SVG/1.1/DTD/svg11.dtd">
<svg version="1.1" xmlns="http://www.w3.org/2000/svg" xmlns:xlink="http://www.w3.org/1999/xlink" preserveAspectRatio="xMidYMid meet" viewBox="0 0 640 640" width="640" height="640"><defs><path d="M553.93 0.31L557.7 0.7L561.44 1.23L565.12 1.91L568.75 2.73L572.33 3.69L575.85 4.79L579.31 6.02L582.7 7.38L586.03 8.87L589.3 10.48L592.48 12.21L595.59 14.07L598.63 16.03L601.58 18.11L604.45 20.3L607.23 22.6L609.91 24.99L612.51 27.49L615.01 30.09L617.4 32.77L619.7 35.55L621.89 38.42L623.97 41.37L625.93 44.41L627.79 47.52L629.52 50.7L631.13 53.97L632.62 57.3L633.98 60.69L635.21 64.15L636.31 67.67L637.27 71.25L638.09 74.88L638.77 78.56L639.3 82.3L639.69 86.07L639.92 89.89L640 93.75L640 546.25L639.92 550.11L639.69 553.93L639.3 557.7L638.77 561.44L638.09 565.12L637.27 568.75L636.31 572.33L635.21 575.85L633.98 579.31L632.62 582.7L631.13 586.03L629.52 589.3L627.79 592.48L625.93 595.59L623.97 598.63L621.89 601.58L619.7 604.45L617.4 607.23L615.01 609.91L612.51 612.51L609.91 615.01L607.23 617.4L604.45 619.7L601.58 621.89L598.63 623.97L595.59 625.93L592.48 627.79L589.3 629.52L586.03 631.13L582.7 632.62L579.31 633.98L575.85 635.21L572.33 636.31L568.75 637.27L565.12 638.09L561.44 638.77L557.7 639.3L553.93 639.69L550.11 639.92L546.25 640L93.75 640L89.89 639.92L86.07 639.69L82.3 639.3L78.56 638.77L74.88 638.09L71.25 637.27L67.67 636.31L64.15 635.21L60.69 633.98L57.3 632.62L53.97 631.13L50.7 629.52L47.52 627.79L44.41 625.93L41.37 623.97L38.42 621.89L35.55 619.7L32.77 617.4L30.09 615.01L27.49 612.51L24.99 609.91L22.6 607.23L20.3 604.45L18.11 601.58L16.03 598.63L14.07 595.59L12.21 592.48L10.48 589.3L8.87 586.03L7.38 582.7L6.02 579.31L4.79 575.85L3.69 572.33L2.73 568.75L1.91 565.12L1.23 561.44L0.7 557.7L0.31 553.93L0.08 550.11L0 546.25L0 93.75L0.08 89.89L0.31 86.07L0.7 82.3L1.23 78.56L1.91 74.88L2.73 71.25L3.69 67.67L4.79 64.15L6.02 60.69L7.38 57.3L8.87 53.97L10.48 50.7L12.21 47.52L14.07 44.41L16.03 41.37L18.11 38.42L20.3 35.55L22.6 32.77L24.99 30.09L27.49 27.49L30.09 24.99L32.77 22.6L35.55 20.3L38.42 18.11L41.37 16.03L44.41 14.07L47.52 12.21L50.7 10.48L53.97 8.87L57.3 7.38L60.69 6.02L64.15 4.79L67.67 3.69L71.25 2.73L74.88 1.91L78.56 1.23L82.3 0.7L86.07 0.31L89.89 0.08L93.75 0L546.25 0L550.11 0.08L553.93 0.31ZM307.43 150.56L300.63 151.25L293.91 152.21L287.28 153.43L280.74 154.91L274.3 156.64L267.97 158.62L261.74 160.83L255.63 163.28L249.63 165.96L243.76 168.86L238.03 171.98L232.42 175.32L226.96 178.86L221.65 182.6L216.49 186.54L211.49 190.67L206.65 194.99L201.98 199.48L197.49 204.15L193.17 208.99L189.04 213.99L185.1 219.15L181.36 224.46L177.82 229.92L174.48 235.53L171.36 241.26L168.46 247.13L165.78 253.13L163.33 259.24L161.12 265.47L159.14 271.8L157.41 278.24L155.93 284.78L154.71 291.41L153.75 298.13L153.06 304.93L152.64 311.8L152.5 318.75L152.64 325.7L153.06 332.57L153.75 339.37L154.71 346.09L155.93 352.72L157.41 359.26L159.14 365.7L161.12 372.03L163.33 378.26L165.78 384.37L168.46 390.37L171.36 396.24L174.48 401.97L177.82 407.58L181.36 413.04L185.1 418.35L189.04 423.51L193.17 428.51L197.49 433.35L201.98 438.02L206.65 442.51L211.49 446.83L216.49 450.96L221.65 454.9L226.96 458.64L232.42 462.18L238.03 465.52L243.76 468.64L249.63 471.54L255.63 474.22L261.74 476.67L267.97 478.88L274.3 480.86L280.74 482.59L287.28 484.07L293.91 485.29L300.63 486.25L307.43 486.94L314.3 487.36L321.25 487.5L328.2 487.36L335.07 486.94L341.87 486.25L348.59 485.29L355.22 484.07L361.76 482.59L368.2 480.86L374.53 478.88L380.76 476.67L386.87 474.22L392.87 471.54L398.74 468.64L404.47 465.52L410.08 462.18L415.54 458.64L420.85 454.9L426.01 450.96L431.01 446.83L435.85 442.51L440.52 438.02L445.01 433.35L449.33 428.51L453.46 423.51L457.4 418.35L461.14 413.04L464.68 407.58L468.02 401.97L471.14 396.24L474.04 390.37L476.72 384.37L479.17 378.26L481.38 372.03L483.36 365.7L485.09 359.26L486.57 352.72L487.79 346.09L488.75 339.37L489.44 332.57L489.86 325.7L490 318.75L489.86 311.8L489.44 304.93L488.75 298.13L487.79 291.41L486.57 284.78L485.09 278.24L483.36 271.8L481.38 265.47L479.17 259.24L476.72 253.13L474.04 247.13L471.14 241.26L468.02 235.53L464.68 229.92L461.14 224.46L457.4 219.15L453.46 213.99L449.33 208.99L445.01 204.15L440.52 199.48L435.85 194.99L431.01 190.67L426.01 186.54L420.85 182.6L415.54 178.86L410.08 175.32L404.47 171.98L398.74 168.86L392.87 165.96L386.87 163.28L380.76 160.83L374.53 158.62L368.2 156.64L361.76 154.91L355.22 153.43L348.59 152.21L341.87 151.25L335.07 150.56L328.2 150.14L321.25 150L314.3 150.14L307.43 150.56ZM504.14 75.19L501.88 75.42L499.64 75.74L497.43 76.14L495.25 76.64L493.1 77.21L490.99 77.87L488.91 78.61L486.88 79.43L484.88 80.32L482.92 81.29L481.01 82.33L479.14 83.44L477.32 84.62L475.55 85.87L473.83 87.18L472.16 88.56L470.55 90L468.99 91.49L467.5 93.05L466.06 94.66L464.68 96.33L463.37 98.05L462.12 99.82L460.94 101.64L459.83 103.51L458.79 105.42L457.82 107.38L456.93 109.38L456.11 111.41L455.37 113.49L454.71 115.6L454.14 117.75L453.64 119.93L453.24 122.14L452.92 124.38L452.69 126.64L452.55 128.93L452.5 131.25L452.55 133.57L452.69 135.86L452.92 138.12L453.24 140.36L453.64 142.57L454.14 144.75L454.71 146.9L455.37 149.01L456.11 151.09L456.93 153.12L457.82 155.12L458.79 157.08L459.83 158.99L460.94 160.86L462.12 162.68L463.37 164.45L464.68 166.17L466.06 167.84L467.5 169.45L468.99 171.01L470.55 172.5L472.16 173.94L473.83 175.32L475.55 176.63L477.32 177.88L479.14 179.06L481.01 180.17L482.92 181.21L484.88 182.18L486.88 183.07L488.91 183.89L490.99 184.63L493.1 185.29L495.25 185.86L497.43 186.36L499.64 186.76L501.88 187.08L504.14 187.31L506.43 187.45L508.75 187.5L511.07 187.45L513.36 187.31L515.62 187.08L517.86 186.76L520.07 186.36L522.25 185.86L524.4 185.29L526.51 184.63L528.59 183.89L530.62 183.07L532.62 182.18L534.58 181.21L536.49 180.17L538.36 179.06L540.18 177.88L541.95 176.63L543.67 175.32L545.34 173.94L546.95 172.5L548.51 171.01L550 169.45L551.44 167.84L552.82 166.17L554.13 164.45L555.38 162.68L556.56 160.86L557.67 158.99L558.71 157.08L559.68 155.12L560.57 153.12L561.39 151.09L562.13 149.01L562.79 146.9L563.36 144.75L563.86 142.57L564.26 140.36L564.58 138.12L564.81 135.86L564.95 133.57L565 131.25L564.95 128.93L564.81 126.64L564.58 124.38L564.26 122.14L563.86 119.93L563.36 117.75L562.79 115.6L562.13 113.49L561.39 111.41L560.57 109.38L559.68 107.38L558.71 105.42L557.67 103.51L556.56 101.64L555.38 99.82L554.13 98.05L552.82 96.33L551.44 94.66L550 93.05L548.51 91.49L546.95 90L545.34 88.56L543.67 87.18L541.95 85.87L540.18 84.62L538.36 83.44L536.49 82.33L534.58 81.29L532.62 80.32L530.62 79.43L528.59 78.61L526.51 77.87L524.4 77.21L522.25 76.64L520.07 76.14L517.86 75.74L515.62 75.42L513.36 75.19L511.07 75.05L508.75 75L506.43 75.05L504.14 75.19Z" id="dtA1kfZ8"></path><path d="M511.4 112.69L512.69 112.91L513.94 113.23L515.16 113.63L516.34 114.1L517.47 114.65L518.57 115.28L519.62 115.97L520.61 116.73L521.56 117.56L522.44 118.44L523.27 119.39L524.03 120.38L524.72 121.43L525.35 122.53L525.9 123.66L526.37 124.84L526.77 126.06L527.09 127.31L527.31 128.6L527.45 129.91L527.5 131.25L527.45 132.59L527.31 133.9L527.09 135.19L526.77 136.44L526.37 137.66L525.9 138.84L525.35 139.97L524.72 141.07L524.03 142.12L523.27 143.11L522.44 144.06L521.56 144.94L520.61 145.77L519.62 146.53L518.57 147.22L517.47 147.85L516.34 148.4L515.16 148.87L513.94 149.27L512.69 149.59L511.4 149.81L510.09 149.95L508.75 150L507.41 149.95L506.1 149.81L504.81 149.59L503.56 149.27L502.34 148.87L501.16 148.4L500.03 147.85L498.93 147.22L497.88 146.53L496.89 145.77L495.94 144.94L495.06 144.06L494.23 143.11L493.47 142.12L492.78 141.07L492.15 139.97L491.6 138.84L491.13 137.66L490.73 136.44L490.41 135.19L490.19 133.9L490.05 132.59L490 131.25L490.05 129.91L490.19 128.6L490.41 127.31L490.73 126.06L491.13 124.84L491.6 123.66L492.15 122.53L492.78 121.43L493.47 120.38L494.23 119.39L495.06 118.44L495.94 117.56L496.89 116.73L497.88 115.97L498.93 115.28L500.03 114.65L501.16 114.1L502.34 113.63L503.56 113.23L504.81 112.91L506.1 112.69L507.41 112.55L508.75 112.5L510.09 112.55L511.4 112.69Z" id="h1aVjBMLLv"></path><path d="M332 187.94L337.29 188.47L342.51 189.22L347.67 190.17L352.75 191.32L357.76 192.67L362.69 194.2L367.53 195.93L372.29 197.83L376.95 199.92L381.51 202.17L385.97 204.6L390.33 207.19L394.58 209.95L398.71 212.86L402.72 215.92L406.62 219.14L410.38 222.49L414.01 225.99L417.51 229.62L420.86 233.38L424.08 237.28L427.14 241.29L430.05 245.42L432.81 249.67L435.4 254.03L437.83 258.49L440.08 263.05L442.17 267.71L444.07 272.47L445.8 277.31L447.33 282.24L448.68 287.25L449.83 292.33L450.78 297.49L451.53 302.71L452.06 308L452.39 313.35L452.5 318.75L452.39 324.15L452.06 329.5L451.53 334.79L450.78 340.01L449.83 345.17L448.68 350.25L447.33 355.26L445.8 360.19L444.07 365.03L442.17 369.79L440.08 374.45L437.83 379.01L435.4 383.47L432.81 387.83L430.05 392.08L427.14 396.21L424.08 400.22L420.86 404.12L417.51 407.88L414.01 411.51L410.38 415.01L406.62 418.36L402.72 421.58L398.71 424.64L394.58 427.55L390.33 430.31L385.97 432.9L381.51 435.33L376.95 437.58L372.29 439.67L367.53 441.57L362.69 443.3L357.76 444.83L352.75 446.18L347.67 447.33L342.51 448.28L337.29 449.03L332 449.56L326.65 449.89L321.25 450L315.85 449.89L310.5 449.56L305.21 449.03L299.99 448.28L294.83 447.33L289.75 446.18L284.74 444.83L279.81 443.3L274.97 441.57L270.21 439.67L265.55 437.58L260.99 435.33L256.53 432.9L252.17 430.31L247.92 427.55L243.79 424.64L239.78 421.58L235.88 418.36L232.12 415.01L228.49 411.51L224.99 407.88L221.64 404.12L218.42 400.22L215.36 396.21L212.45 392.08L209.69 387.83L207.1 383.47L204.67 379.01L202.42 374.45L200.33 369.79L198.43 365.03L196.7 360.19L195.17 355.26L193.82 350.25L192.67 345.17L191.72 340.01L190.97 334.79L190.44 329.5L190.11 324.15L190 318.75L190.11 313.35L190.44 308L190.97 302.71L191.72 297.49L192.67 292.33L193.82 287.25L195.17 282.24L196.7 277.31L198.43 272.47L200.33 267.71L202.42 263.05L204.67 258.49L207.1 254.03L209.69 249.67L212.45 245.42L215.36 241.29L218.42 237.28L221.64 233.38L224.99 229.62L228.49 225.99L232.12 222.49L235.88 219.14L239.78 215.92L243.79 212.86L247.92 209.95L252.17 207.19L256.53 204.6L260.99 202.17L265.55 199.92L270.21 197.83L274.97 195.93L279.81 194.2L284.74 192.67L289.75 191.32L294.83 190.17L299.99 189.22L305.21 188.47L310.5 187.94L315.85 187.61L321.25 187.5L326.65 187.61L332 187.94Z" id="a3PABejmQZ"></path></defs><g><g><g><use xlink:href="#dtA1kfZ8" opacity="1" fill="#ffffff" fill-opacity="1"></use><g><use xlink:href="#dtA1kfZ8" opacity="1" fill-opacity="0" stroke="#000000" stroke-width="1" stroke-opacity="0"></use></g></g><g><use xlink:href="#h1aVjBMLLv" opacity="1" fill="#ffffff" fill-opacity="1"></use><g><use xlink:href="#h1aVjBMLLv" opacity="1" fill-opacity="0" stroke="#000000" stroke-width="1" stroke-opacity="0"></use></g></g><g><use xlink:href="#a3PABejmQZ" opacity="1" fill="#ffffff" fill-opacity="1"></use><g><use xlink:href="#a3PABejmQZ" opacity="1" fill-opacity="0" stroke="#000000" stroke-width="1" stroke-opacity="0"></use></g></g></g></g></svg>