<?xml version="1.0" encoding="UTF-8" standalone="no"?>
<!DOCTYPE svg PUBLIC "-//W3C//DTD SVG 1.1//EN" "http://www.w3.org/Graphics/SVG/1.1/DTD/svg11.dtd">
<svg version="1.1" xmlns="http://www.w3.org/2000/svg" xmlns:xlink="http://www.w3.org/1999/xlink" preserveAspectRatio="xMidYMid meet" viewBox="0 0 640 640" width="640" height="640"><defs><path d="M434.81 58.82L437.15 58.91L439.5 59.04L441.98 59.21L444.44 59.42L446.9 59.67L449.34 59.96L451.77 60.29L454.19 60.65L456.6 61.05L458.99 61.5L461.37 61.98L463.73 62.49L466.08 63.05L468.41 63.64L470.73 64.27L473.04 64.94L475.32 65.64L477.6 66.38L479.85 67.16L482.09 67.97L484.32 68.83L486.52 69.71L488.71 70.64L490.88 71.6L493.04 72.6L495.17 73.63L497.29 74.7L499.39 75.81L501.47 76.95L503.53 78.12L505.57 79.33L507.58 80.58L509.58 81.86L511.56 83.18L513.52 84.53L515.46 85.92L517.37 87.34L519.27 88.8L521.14 90.29L522.99 91.82L524.82 93.38L526.62 94.97L527.49 94.74L528.35 94.52L529.2 94.29L530.03 94.05L530.86 93.82L531.68 93.59L532.5 93.36L533.3 93.12L534.1 92.88L534.89 92.64L535.68 92.4L536.46 92.16L537.23 91.92L538 91.67L538.77 91.42L539.54 91.17L540.3 90.92L541.06 90.67L541.82 90.41L542.58 90.15L543.34 89.89L544.1 89.63L544.86 89.36L545.62 89.09L546.39 88.82L547.16 88.54L547.93 88.26L548.7 87.98L549.48 87.7L550.26 87.41L551.05 87.12L551.85 86.82L552.65 86.52L553.46 86.22L554.28 85.92L555.11 85.61L555.94 85.29L556.79 84.97L557.64 84.65L558.51 84.33L559.03 84.13L559.56 83.93L560.1 83.73L560.64 83.53L561.18 83.32L561.72 83.12L562.27 82.91L562.82 82.7L563.38 82.5L563.94 82.29L564.51 82.07L565.08 81.86L565.66 81.65L566.24 81.43L566.83 81.21L567.42 80.99L568.01 80.77L568.61 80.55L569.22 80.33L569.83 80.1L570.45 79.88L571.07 79.65L571.7 79.42L572.33 79.19L572.97 78.96L573.62 78.72L574.27 78.49L574.93 78.25L575.6 78.01L576.27 77.77L576.95 77.53L577.63 77.29L578.32 77.04L579.02 76.8L579.72 76.55L580.43 76.3L581.15 76.05L581.88 75.8L582.61 75.54L583.35 75.29L619.91 62.69L596.07 130.79L596.19 130.78L596.31 130.77L596.43 130.76L596.55 130.75L596.66 130.74L596.78 130.73L596.9 130.72L597.02 130.71L597.14 130.7L597.26 130.69L597.38 130.68L597.5 130.67L597.62 130.67L597.74 130.66L597.86 130.65L597.98 130.64L598.1 130.63L598.23 130.62L598.35 130.61L598.47 130.61L598.59 130.6L598.71 130.59L598.84 130.58L598.96 130.57L599.08 130.57L599.21 130.56L599.33 130.55L599.45 130.55L599.58 130.54L599.7 130.53L599.83 130.52L599.95 130.52L600.08 130.51L600.2 130.51L600.33 130.5L600.45 130.49L600.58 130.49L600.71 130.48L600.83 130.48L600.96 130.47L640 128.7L616.93 160.24L616.83 160.37L616.74 160.5L616.64 160.63L616.56 160.74L616.47 160.86L616.39 160.97L616.32 161.08L616.24 161.18L616.17 161.28L616.1 161.38L616.04 161.47L615.97 161.56L615.91 161.64L615.85 161.73L615.79 161.81L615.74 161.88L615.69 161.96L615.64 162.03L615.59 162.1L615.54 162.17L615.5 162.23L615.45 162.29L615.41 162.36L615.37 162.42L615.33 162.47L615.29 162.53L615.25 162.59L615.21 162.64L615.18 162.7L615.14 162.75L615.11 162.8L615.07 162.85L615.04 162.91L615 162.96L614.97 163.01L614.94 163.06L614.9 163.11L614.87 163.16L614.83 163.21L614.8 163.27L614.66 163.48L614.51 163.7L614.36 163.93L614.2 164.17L614.02 164.42L613.83 164.7L613.62 165.01L613.4 165.34L613.14 165.7L612.87 166.09L612.56 166.53L612.22 167L611.85 167.53L611.44 168.1L610.99 168.72L610.5 169.4L609.96 170.14L609.38 170.94L608.74 171.81L608.05 172.75L607.31 173.76L606.51 174.86L605.64 176.03L604.71 177.29L603.72 178.63L602.66 180.07L601.52 181.6L600.31 183.23L599.02 184.97L597.65 186.81L596.2 188.76L594.66 190.83L593.03 193.01L591.32 195.31L589.51 197.74L587.6 200.29L585.59 202.97L583.48 205.79L581.27 208.75L578.95 211.85L578.36 212.65L577.79 213.46L577.23 214.29L576.69 215.12L576.16 215.97L575.65 216.82L575.15 217.69L574.67 218.57L574.21 219.46L573.76 220.36L573.32 221.26L572.9 222.18L572.5 223.11L572.11 224.04L571.74 224.98L571.38 225.94L571.04 226.9L570.72 227.86L570.41 228.84L570.12 229.82L569.85 230.81L569.59 231.81L569.35 232.82L569.12 233.83L568.91 234.84L568.72 235.87L568.54 236.9L568.38 237.93L568.24 238.97L568.11 240.02L568 241.07L567.91 242.12L567.84 243.18L567.78 244.24L567.74 245.31L567.71 246.38L567.71 247.46L567.72 248.53L567.75 249.62L567.8 250.7L567.99 254.81L568.15 258.9L568.27 262.98L568.35 267.03L568.4 271.06L568.41 275.07L568.39 279.06L568.34 283.04L568.24 286.99L568.11 290.92L567.95 294.82L567.75 298.71L567.51 302.58L567.24 306.42L566.93 310.25L566.59 314.05L566.21 317.83L565.8 321.59L565.35 325.33L564.87 329.04L564.35 332.73L563.79 336.4L563.2 340.05L562.57 343.68L561.91 347.28L561.21 350.86L560.48 354.41L559.71 357.95L558.91 361.46L558.07 364.94L557.2 368.41L556.29 371.84L555.34 375.26L554.36 378.65L553.35 382.02L552.3 385.36L551.21 388.68L550.09 391.98L548.93 395.25L547.74 398.49L546.58 401.54L545.39 404.56L544.17 407.57L542.92 410.55L541.63 413.51L540.32 416.45L538.97 419.36L537.6 422.26L536.19 425.13L534.75 427.98L533.28 430.8L531.78 433.6L530.25 436.38L528.68 439.14L527.09 441.88L525.47 444.59L523.82 447.27L522.13 449.94L520.42 452.58L518.67 455.2L516.9 457.79L515.1 460.36L513.26 462.91L511.4 465.43L509.5 467.93L507.58 470.41L505.62 472.86L503.64 475.29L501.63 477.69L499.58 480.07L497.51 482.42L495.41 484.75L493.28 487.05L491.12 489.33L488.93 491.59L486.71 493.82L484.46 496.02L482.18 498.2L479.87 500.36L477.54 502.49L474.61 505.09L471.64 507.65L468.63 510.16L465.58 512.64L462.5 515.07L459.37 517.46L456.21 519.81L453 522.12L449.76 524.38L446.47 526.61L443.15 528.79L439.79 530.93L436.39 533.03L432.96 535.08L429.48 537.1L425.97 539.07L422.42 541L418.83 542.88L415.2 544.73L411.54 546.53L407.84 548.29L404.1 550.01L400.32 551.68L396.51 553.31L392.66 554.9L388.77 556.45L384.85 557.95L380.89 559.41L376.89 560.83L372.86 562.2L368.79 563.53L364.68 564.82L360.54 566.06L356.37 567.26L352.15 568.42L347.9 569.53L343.62 570.6L339.3 571.63L334.95 572.61L330.56 573.55L328.39 573.99L326.22 574.43L324.04 574.85L321.85 575.26L319.66 575.66L317.45 576.05L315.24 576.42L313.02 576.79L310.8 577.14L308.56 577.49L306.32 577.82L304.08 578.14L301.82 578.45L299.56 578.75L297.3 579.03L295.02 579.31L292.74 579.57L290.46 579.83L288.17 580.07L285.87 580.3L283.56 580.52L281.25 580.73L278.94 580.92L276.61 581.11L274.29 581.28L271.95 581.45L269.61 581.6L267.27 581.74L264.92 581.87L262.57 581.99L260.21 582.1L257.84 582.19L255.47 582.28L253.1 582.35L250.72 582.41L248.34 582.46L245.95 582.5L243.56 582.53L241.16 582.55L238.76 582.55L236.69 582.55L234.61 582.54L232.52 582.51L230.44 582.49L228.35 582.45L226.26 582.4L224.16 582.35L222.07 582.28L219.97 582.21L217.86 582.13L215.76 582.04L213.65 581.95L211.55 581.84L209.43 581.73L207.32 581.61L205.2 581.48L203.09 581.34L200.97 581.19L198.85 581.03L196.72 580.87L194.6 580.7L192.47 580.52L190.34 580.33L188.21 580.13L186.08 579.92L183.94 579.71L181.81 579.49L179.67 579.25L177.53 579.01L175.4 578.77L173.26 578.51L171.11 578.24L168.97 577.97L166.83 577.69L164.68 577.4L162.54 577.1L160.39 576.79L158.24 576.48L156.09 576.15L153.94 575.82L150.16 575.19L146.37 574.5L142.59 573.74L138.82 572.93L135.06 572.06L131.32 571.13L127.59 570.16L123.88 569.15L120.21 568.09L116.56 566.99L112.94 565.86L109.36 564.7L105.82 563.51L102.32 562.3L98.87 561.06L95.46 559.81L92.12 558.55L88.82 557.27L85.59 555.99L82.43 554.7L79.33 553.41L76.3 552.13L73.35 550.86L70.47 549.59L67.68 548.34L64.97 547.11L62.35 545.89L59.82 544.7L57.38 543.54L55.05 542.41L52.82 541.32L50.69 540.26L48.68 539.24L46.77 538.27L44.99 537.35L43.32 536.48L41.78 535.67L40.36 534.91L39.07 534.22L37.92 533.59L0 512.86L41.05 499.36L44.39 498.26L47.66 497.19L50.87 496.13L54.01 495.09L57.11 494.07L60.14 493.06L63.13 492.07L66.06 491.09L68.95 490.13L71.79 489.17L74.59 488.23L77.35 487.3L80.07 486.38L82.75 485.46L85.4 484.55L88.01 483.65L90.6 482.75L93.15 481.86L95.69 480.97L98.2 480.08L100.69 479.19L103.16 478.3L105.61 477.41L108.05 476.52L110.48 475.62L112.9 474.72L115.31 473.82L117.71 472.91L120.12 471.99L122.52 471.06L124.93 470.13L127.34 469.18L129.75 468.22L132.18 467.25L134.61 466.27L137.06 465.27L139.52 464.26L142 463.23L144.5 462.18L147.03 461.11L144.5 459.86L142.01 458.56L139.55 457.21L137.11 455.81L134.71 454.36L132.34 452.87L130 451.33L127.7 449.75L125.43 448.11L123.19 446.44L120.99 444.72L118.82 442.95L116.69 441.14L114.59 439.29L112.54 437.39L110.51 435.45L108.53 433.47L106.58 431.44L104.68 429.38L102.81 427.27L100.98 425.13L99.19 422.94L97.45 420.71L95.74 418.44L94.08 416.14L92.46 413.79L90.88 411.41L89.35 408.99L87.86 406.53L86.42 404.03L85.02 401.5L83.66 398.94L82.36 396.33L81.1 393.69L79.89 391.02L78.72 388.31L77.61 385.57L76.54 382.79L75.52 379.98L74.56 377.14L65 348.15L72.84 349.35L72.28 348.78L71.73 348.22L71.19 347.66L70.66 347.1L70.12 346.53L69.6 345.97L69.08 345.41L68.57 344.85L68.06 344.29L67.56 343.72L67.06 343.16L66.57 342.6L66.08 342.04L65.6 341.48L65.13 340.92L64.66 340.36L64.2 339.8L63.74 339.25L63.28 338.69L62.84 338.13L62.4 337.58L61.96 337.03L61.53 336.47L61.1 335.92L60.68 335.37L60.27 334.83L59.86 334.28L59.45 333.74L59.05 333.19L58.66 332.65L58.27 332.11L57.89 331.58L57.51 331.04L57.14 330.51L56.77 329.98L56.4 329.45L56.04 328.92L55.69 328.39L55.34 327.87L55 327.35L53.8 325.5L52.63 323.63L51.49 321.74L50.38 319.83L49.3 317.91L48.25 315.97L47.23 314.01L46.23 312.04L45.27 310.06L44.34 308.07L43.45 306.06L42.58 304.05L41.74 302.02L40.94 299.99L40.17 297.94L39.43 295.89L38.72 293.84L38.05 291.78L37.41 289.72L36.8 287.65L36.23 285.58L35.69 283.51L35.18 281.44L34.71 279.37L34.28 277.3L33.88 275.24L33.51 273.18L33.18 271.12L32.89 269.06L32.63 267.02L32.41 264.98L32.23 262.95L32.08 260.92L31.97 258.91L31.89 256.9L31.86 254.91L31.86 252.93L31.9 250.97L31.98 249.02L32.09 247.08L33.89 221.77L49.04 227.64L48.57 226.74L48.1 225.83L47.63 224.91L47.18 224L46.73 223.08L46.29 222.16L45.85 221.23L45.42 220.3L45 219.37L44.58 218.44L44.17 217.5L43.77 216.56L43.38 215.62L42.99 214.68L42.61 213.73L42.23 212.78L41.86 211.82L41.5 210.87L41.15 209.91L40.8 208.95L40.46 207.98L40.13 207.01L39.8 206.05L39.48 205.07L39.17 204.1L38.86 203.12L38.56 202.14L38.27 201.16L37.99 200.17L37.71 199.18L37.44 198.19L37.17 197.2L36.92 196.21L36.67 195.21L36.42 194.21L36.19 193.2L35.96 192.2L35.74 191.19L35.52 190.18L35.32 189.17L34.84 186.7L34.42 184.21L34.03 181.72L33.7 179.23L33.4 176.73L33.16 174.23L32.95 171.72L32.8 169.21L32.69 166.69L32.62 164.17L32.6 161.66L32.62 159.14L32.68 156.62L32.79 154.09L32.95 151.58L33.15 149.06L33.39 146.54L33.68 144.03L34.01 141.52L34.38 139.01L34.8 136.51L35.26 134.01L35.77 131.52L36.31 129.04L36.91 126.56L37.54 124.09L38.22 121.62L38.94 119.17L39.7 116.72L40.51 114.29L41.36 111.86L42.25 109.45L43.19 107.05L44.16 104.66L45.18 102.28L46.25 99.91L47.35 97.57L48.5 95.23L49.68 92.91L50.91 90.61L64.11 66.38L81.76 87.58L85.98 92.56L90.25 97.43L94.57 102.21L98.95 106.88L103.39 111.45L107.88 115.91L112.43 120.27L117.03 124.53L121.69 128.69L126.4 132.75L131.16 136.7L135.98 140.54L140.85 144.29L145.78 147.93L150.76 151.47L155.79 154.9L160.88 158.23L166.02 161.46L171.21 164.58L176.45 167.6L181.75 170.52L187.1 173.33L192.5 176.04L197.96 178.64L203.47 181.14L209.03 183.53L214.64 185.82L220.3 188.01L226.01 190.09L231.78 192.07L237.59 193.94L243.46 195.71L249.38 197.37L255.35 198.93L261.37 200.38L267.44 201.73L273.56 202.97L279.73 204.11L285.95 205.14L292.22 206.06L291.97 204.29L291.75 202.53L291.55 200.76L291.37 199L291.21 197.25L291.08 195.49L290.97 193.74L290.88 192L290.81 190.26L290.77 188.52L290.75 186.79L290.75 185.06L290.77 183.34L290.82 181.62L290.89 179.91L290.98 178.21L291.09 176.5L291.23 174.81L291.38 173.12L291.56 171.43L291.77 169.76L291.99 168.08L292.24 166.42L292.51 164.76L292.8 163.11L293.11 161.46L293.45 159.82L293.81 158.19L294.19 156.56L294.59 154.94L295.02 153.33L295.47 151.73L295.94 150.13L296.43 148.55L296.95 146.97L297.48 145.4L298.04 143.83L298.63 142.28L299.23 140.73L299.86 139.2L300.61 137.42L301.4 135.65L302.21 133.9L303.06 132.17L303.93 130.44L304.82 128.74L305.75 127.04L306.71 125.37L307.69 123.71L308.7 122.06L309.73 120.43L310.79 118.81L311.88 117.21L313 115.63L314.14 114.06L315.31 112.51L316.51 110.98L317.73 109.46L318.97 107.96L320.25 106.48L321.54 105.02L322.87 103.57L324.21 102.14L325.58 100.74L326.98 99.34L328.4 97.97L329.85 96.62L331.32 95.28L332.81 93.97L334.33 92.67L335.87 91.4L337.43 90.14L339.02 88.9L340.63 87.69L342.26 86.49L343.92 85.32L345.59 84.16L347.29 83.03L349.02 81.92L350.76 80.83L352.72 79.65L354.7 78.5L356.7 77.38L358.72 76.29L360.75 75.23L362.81 74.2L364.88 73.21L366.97 72.25L369.07 71.32L371.2 70.42L373.33 69.55L375.48 68.72L377.65 67.92L379.83 67.15L382.02 66.41L384.23 65.71L386.44 65.04L388.67 64.4L390.91 63.8L393.16 63.23L395.42 62.69L397.69 62.19L399.97 61.72L402.25 61.28L404.54 60.88L406.84 60.51L409.15 60.18L411.47 59.88L413.78 59.62L416.11 59.39L418.44 59.19L420.77 59.04L423.1 58.91L425.44 58.82L427.78 58.77L430.12 58.75L432.47 58.77L434.81 58.82Z" id="b290EDias1"></path></defs><g><g><g><use xlink:href="#b290EDias1" opacity="1" fill="#ffffff" fill-opacity="1"></use><g><use xlink:href="#b290EDias1" opacity="1" fill-opacity="0" stroke="#000000" stroke-width="1" stroke-opacity="0"></use></g></g></g></g></svg>